<svg width="269" height="61" viewBox="0 0 269 61" fill="none" xmlns="http://www.w3.org/2000/svg">
<path d="M0 0H269V61H0V0Z" fill="#2A0048"/>
<path d="M98.2832 41H79.0683V14.2403H86.4458V37.5993H98.2832V41ZM128.369 27.583C128.369 29.7386 127.998 31.6837 127.254 33.4181C126.511 35.1401 125.483 36.602 124.17 37.8037C122.856 39.0054 121.302 39.9284 119.505 40.5726C117.709 41.2168 115.764 41.5389 113.67 41.5389C111.576 41.5389 109.631 41.2168 107.835 40.5726C106.039 39.9284 104.484 39.0054 103.171 37.8037C101.857 36.602 100.829 35.1401 100.086 33.4181C99.3425 31.6837 98.9708 29.7386 98.9708 27.583C98.9708 25.3902 99.3363 23.4327 100.067 21.7107C100.811 19.9763 101.833 18.5144 103.133 17.3251C104.447 16.1234 106.001 15.2066 107.798 14.5748C109.594 13.9306 111.552 13.6085 113.67 13.6085C115.789 13.6085 117.746 13.9306 119.542 14.5748C121.339 15.2066 122.887 16.1234 124.188 17.3251C125.501 18.5144 126.523 19.9763 127.254 21.7107C127.998 23.4327 128.369 25.3902 128.369 27.583ZM120.862 27.583C120.862 26.7653 120.825 25.9291 120.75 25.0743C120.676 24.2194 120.54 23.3894 120.341 22.5841C120.143 21.7788 119.871 21.0231 119.524 20.317C119.189 19.6108 118.756 18.9976 118.223 18.4772C117.69 17.9445 117.046 17.5295 116.29 17.2322C115.547 16.9225 114.674 16.7676 113.67 16.7676C112.654 16.7676 111.768 16.9225 111.013 17.2322C110.257 17.5295 109.613 17.9383 109.08 18.4587C108.547 18.979 108.114 19.5922 107.779 20.2984C107.445 21.0046 107.178 21.7603 106.98 22.5655C106.794 23.3584 106.664 24.1885 106.59 25.0557C106.516 25.9105 106.478 26.7529 106.478 27.583C106.478 28.4006 106.516 29.2369 106.59 30.0917C106.664 30.9465 106.8 31.7766 106.999 32.5818C107.197 33.3747 107.463 34.1242 107.798 34.8304C108.145 35.5366 108.584 36.156 109.117 36.6887C109.65 37.209 110.288 37.6241 111.031 37.9338C111.787 38.2435 112.667 38.3984 113.67 38.3984C114.649 38.3984 115.504 38.2435 116.235 37.9338C116.965 37.6117 117.597 37.1843 118.13 36.6515C118.663 36.1064 119.103 35.4808 119.449 34.7747C119.809 34.0561 120.087 33.3004 120.286 32.5075C120.496 31.7022 120.645 30.8784 120.732 30.036C120.818 29.1935 120.862 28.3759 120.862 27.583ZM157.266 20.8745L154.088 22.2125C153.841 21.4072 153.506 20.6701 153.085 20.0011C152.676 19.3321 152.18 18.7622 151.598 18.2914C151.028 17.8083 150.378 17.4366 149.647 17.1764C148.916 16.9039 148.117 16.7676 147.25 16.7676C146.321 16.7676 145.466 16.9225 144.685 17.2322C143.917 17.5419 143.223 17.9631 142.604 18.4958C141.997 19.0162 141.464 19.6294 141.006 20.3356C140.547 21.0417 140.163 21.7974 139.854 22.6027C139.556 23.3956 139.327 24.2194 139.166 25.0743C139.017 25.9291 138.943 26.7653 138.943 27.583C138.943 28.8838 139.092 30.1784 139.389 31.4669C139.699 32.7553 140.182 33.9136 140.839 34.9419C141.508 35.9702 142.369 36.8064 143.422 37.4506C144.475 38.0824 145.751 38.3984 147.25 38.3984C148.067 38.3984 148.705 38.2187 149.164 37.8595C149.622 37.4878 149.851 36.8436 149.851 35.9268V27.7131H157.229V41H155.092L153.791 38.9001C152.602 39.8045 151.289 40.4735 149.851 40.9071C148.427 41.3283 146.971 41.5389 145.484 41.5389C144.171 41.5389 142.908 41.3779 141.693 41.0557C140.492 40.7336 139.371 40.2753 138.33 39.6806C137.289 39.0859 136.341 38.3674 135.487 37.525C134.644 36.6825 133.919 35.7472 133.312 34.7189C132.718 33.6906 132.253 32.5756 131.919 31.3739C131.597 30.1598 131.436 28.8962 131.436 27.583C131.436 26.2698 131.597 25.0123 131.919 23.8106C132.253 22.5965 132.718 21.4753 133.312 20.4471C133.919 19.4064 134.644 18.4649 135.487 17.6224C136.341 16.78 137.289 16.0614 138.33 15.4668C139.371 14.8721 140.492 14.4137 141.693 14.0916C142.908 13.7695 144.171 13.6085 145.484 13.6085C146.748 13.6085 147.981 13.7571 149.182 14.0545C150.397 14.3518 151.524 14.804 152.565 15.411C153.605 16.0057 154.528 16.7614 155.333 17.6782C156.151 18.5826 156.795 19.648 157.266 20.8745ZM190.4 27.583C190.4 29.7386 190.028 31.6837 189.285 33.4181C188.541 35.1401 187.513 36.602 186.2 37.8037C184.887 39.0054 183.332 39.9284 181.536 40.5726C179.739 41.2168 177.794 41.5389 175.701 41.5389C173.607 41.5389 171.662 41.2168 169.865 40.5726C168.069 39.9284 166.514 39.0054 165.201 37.8037C163.888 36.602 162.86 35.1401 162.116 33.4181C161.373 31.6837 161.001 29.7386 161.001 27.583C161.001 25.3902 161.367 23.4327 162.098 21.7107C162.841 19.9763 163.863 18.5144 165.164 17.3251C166.477 16.1234 168.032 15.2066 169.828 14.5748C171.625 13.9306 173.582 13.6085 175.701 13.6085C177.819 13.6085 179.776 13.9306 181.573 14.5748C183.369 15.2066 184.918 16.1234 186.219 17.3251C187.532 18.5144 188.554 19.9763 189.285 21.7107C190.028 23.4327 190.4 25.3902 190.4 27.583ZM182.892 27.583C182.892 26.7653 182.855 25.9291 182.781 25.0743C182.706 24.2194 182.57 23.3894 182.372 22.5841C182.174 21.7788 181.901 21.0231 181.554 20.317C181.22 19.6108 180.786 18.9976 180.253 18.4772C179.721 17.9445 179.076 17.5295 178.321 17.2322C177.577 16.9225 176.704 16.7676 175.701 16.7676C174.685 16.7676 173.799 16.9225 173.043 17.2322C172.287 17.5295 171.643 17.9383 171.111 18.4587C170.578 18.979 170.144 19.5922 169.81 20.2984C169.475 21.0046 169.209 21.7603 169.011 22.5655C168.825 23.3584 168.695 24.1885 168.62 25.0557C168.546 25.9105 168.509 26.7529 168.509 27.583C168.509 28.4006 168.546 29.2369 168.62 30.0917C168.695 30.9465 168.831 31.7766 169.029 32.5818C169.227 33.3747 169.494 34.1242 169.828 34.8304C170.175 35.5366 170.615 36.156 171.148 36.6887C171.68 37.209 172.318 37.6241 173.062 37.9338C173.817 38.2435 174.697 38.3984 175.701 38.3984C176.679 38.3984 177.534 38.2435 178.265 37.9338C178.996 37.6117 179.628 37.1843 180.16 36.6515C180.693 36.1064 181.133 35.4808 181.48 34.7747C181.839 34.0561 182.118 33.3004 182.316 32.5075C182.527 31.7022 182.675 30.8784 182.762 30.036C182.849 29.1935 182.892 28.3759 182.892 27.583Z" fill="white"/>
<path d="M0 0V-4H-4V0H0ZM269 0H273V-4H269V0ZM269 61V65H273V61H269ZM0 61H-4V65H0V61ZM0 4H269V-4H0V4ZM265 0V61H273V0H265ZM269 57H0V65H269V57ZM4 61V0H-4V61H4Z" fill="white"/>
</svg>
